<svg width="50" height="50" viewBox="0 0 50 50" fill="none" xmlns="http://www.w3.org/2000/svg">
<g filter="url(#filter0_d_1_224)">
<rect width="22" height="22" rx="4" transform="matrix(-1 0 0 1 36 10)" fill="white"/>
</g>
<path fill-rule="evenodd" clip-rule="evenodd" d="M30.6001 21C30.6001 20.6686 30.3315 20.4 30.0001 20.4L21.4898 20.4L24.816 17.2325C25.0548 17.0028 25.0623 16.623 24.8326 16.3841C24.6029 16.1453 24.2231 16.1378 23.9842 16.3675L19.5842 20.5675C19.4666 20.6806 19.4001 20.8368 19.4001 21C19.4001 21.1632 19.4666 21.3194 19.5842 21.4325L23.9842 25.6325C24.2231 25.8622 24.6029 25.8547 24.8326 25.6159C25.0623 25.377 25.0548 24.9972 24.816 24.7675L21.4898 21.6L30.0001 21.6C30.3315 21.6 30.6001 21.3314 30.6001 21Z" fill="#00131E"/>
<defs>
<filter id="filter0_d_1_224" x="0" y="0" width="50" height="50" filterUnits="userSpaceOnUse" color-interpolation-filters="sRGB">
<feFlood flood-opacity="0" result="BackgroundImageFix"/>
<feColorMatrix in="SourceAlpha" type="matrix" values="0 0 0 0 0 0 0 0 0 0 0 0 0 0 0 0 0 0 127 0" result="hardAlpha"/>
<feOffset dy="4"/>
<feGaussianBlur stdDeviation="7"/>
<feComposite in2="hardAlpha" operator="out"/>
<feColorMatrix type="matrix" values="0 0 0 0 0 0 0 0 0 0.0745098 0 0 0 0 0.117647 0 0 0 0.15 0"/>
<feBlend mode="normal" in2="BackgroundImageFix" result="effect1_dropShadow_1_224"/>
<feBlend mode="normal" in="SourceGraphic" in2="effect1_dropShadow_1_224" result="shape"/>
</filter>
</defs>
</svg>
