<svg width="90" height="20" viewBox="0 0 90 20" fill="none" xmlns="http://www.w3.org/2000/svg">
<g opacity="0.4">
<path d="M30.532 14.91C30.4107 14.91 30.3127 14.868 30.238 14.784C30.1633 14.7093 30.1027 14.644 30.056 14.588L29.482 13.804C28.978 14.028 28.3947 14.14 27.732 14.14C26.9293 14.14 26.2433 14.0047 25.674 13.734C25.114 13.454 24.6753 13.0293 24.358 12.46C24.05 11.8813 23.882 11.158 23.854 10.29C23.8447 9.87933 23.84 9.48733 23.84 9.114C23.84 8.73133 23.8447 8.33467 23.854 7.924C23.882 7.06533 24.0593 6.35133 24.386 5.782C24.7127 5.20333 25.1607 4.774 25.73 4.494C26.3087 4.20467 26.976 4.06 27.732 4.06C28.4973 4.06 29.1647 4.20467 29.734 4.494C30.3127 4.774 30.7653 5.20333 31.092 5.782C31.4187 6.35133 31.5913 7.06533 31.61 7.924C31.6287 8.33467 31.638 8.73133 31.638 9.114C31.638 9.48733 31.6287 9.87933 31.61 10.29C31.5633 11.578 31.2273 12.5347 30.602 13.16L31.526 14.476C31.5353 14.4853 31.5447 14.4993 31.554 14.518C31.5633 14.546 31.568 14.5833 31.568 14.63C31.5773 14.7047 31.554 14.77 31.498 14.826C31.442 14.882 31.372 14.91 31.288 14.91H30.532ZM27.732 12.95C28.4413 12.95 29.0247 12.7353 29.482 12.306C29.9393 11.8767 30.1867 11.1813 30.224 10.22C30.2427 9.8 30.252 9.42667 30.252 9.1C30.252 8.764 30.2427 8.39067 30.224 7.98C30.2053 7.336 30.084 6.81333 29.86 6.412C29.6453 6.01067 29.356 5.71667 28.992 5.53C28.628 5.34333 28.208 5.25 27.732 5.25C27.2747 5.25 26.8593 5.34333 26.486 5.53C26.122 5.71667 25.8327 6.01067 25.618 6.412C25.4033 6.81333 25.282 7.336 25.254 7.98C25.2447 8.39067 25.24 8.764 25.24 9.1C25.24 9.42667 25.2447 9.8 25.254 10.22C25.2913 11.1813 25.5387 11.8767 25.996 12.306C26.4533 12.7353 27.032 12.95 27.732 12.95ZM36.2266 14.14C35.6293 14.14 35.1206 14.0093 34.7006 13.748C34.2899 13.4773 33.9773 13.104 33.7626 12.628C33.5479 12.152 33.4406 11.606 33.4406 10.99V7.042C33.4406 6.94867 33.4686 6.874 33.5246 6.818C33.5899 6.75267 33.6693 6.72 33.7626 6.72H34.4626C34.5559 6.72 34.6306 6.75267 34.6866 6.818C34.7519 6.874 34.7846 6.94867 34.7846 7.042V10.92C34.7846 12.3107 35.3913 13.006 36.6046 13.006C37.1833 13.006 37.6453 12.824 37.9906 12.46C38.3453 12.0867 38.5226 11.5733 38.5226 10.92V7.042C38.5226 6.94867 38.5506 6.874 38.6066 6.818C38.6719 6.75267 38.7513 6.72 38.8446 6.72H39.5306C39.6333 6.72 39.7126 6.75267 39.7686 6.818C39.8246 6.874 39.8526 6.94867 39.8526 7.042V13.678C39.8526 13.7713 39.8246 13.8507 39.7686 13.916C39.7126 13.972 39.6333 14 39.5306 14H38.8866C38.7933 14 38.7139 13.972 38.6486 13.916C38.5926 13.8507 38.5646 13.7713 38.5646 13.678V13.062C38.3126 13.3887 38.0046 13.65 37.6406 13.846C37.2859 14.042 36.8146 14.14 36.2266 14.14ZM42.2545 14C42.1612 14 42.0818 13.972 42.0165 13.916C41.9605 13.8507 41.9325 13.7713 41.9325 13.678V7.042C41.9325 6.94867 41.9605 6.874 42.0165 6.818C42.0818 6.75267 42.1612 6.72 42.2545 6.72H42.9265C43.0198 6.72 43.0945 6.75267 43.1505 6.818C43.2065 6.874 43.2345 6.94867 43.2345 7.042V13.678C43.2345 13.7713 43.2065 13.8507 43.1505 13.916C43.0945 13.972 43.0198 14 42.9265 14H42.2545ZM42.1425 5.362C42.0492 5.362 41.9698 5.334 41.9045 5.278C41.8485 5.21267 41.8205 5.13333 41.8205 5.04V4.284C41.8205 4.19067 41.8485 4.116 41.9045 4.06C41.9698 3.99467 42.0492 3.962 42.1425 3.962H43.0245C43.1178 3.962 43.1925 3.99467 43.2485 4.06C43.3138 4.116 43.3465 4.19067 43.3465 4.284V5.04C43.3465 5.13333 43.3138 5.21267 43.2485 5.278C43.1925 5.334 43.1178 5.362 43.0245 5.362H42.1425ZM45.2515 14C45.1581 14 45.0788 13.972 45.0135 13.916C44.9575 13.8507 44.9295 13.7713 44.9295 13.678V13.188C44.9295 13.104 44.9481 13.0247 44.9855 12.95C45.0321 12.8753 45.0788 12.8053 45.1255 12.74L48.9895 7.826H45.3775C45.2841 7.826 45.2048 7.798 45.1395 7.742C45.0835 7.686 45.0555 7.60667 45.0555 7.504V7.042C45.0555 6.94867 45.0835 6.874 45.1395 6.818C45.2048 6.75267 45.2841 6.72 45.3775 6.72H50.3615C50.4548 6.72 50.5295 6.75267 50.5855 6.818C50.6508 6.874 50.6835 6.94867 50.6835 7.042V7.56C50.6835 7.644 50.6601 7.71867 50.6135 7.784C50.5761 7.84933 50.5341 7.91933 50.4875 7.994L46.6655 12.894H50.6415C50.7348 12.894 50.8095 12.922 50.8655 12.978C50.9308 13.034 50.9635 13.1133 50.9635 13.216V13.678C50.9635 13.7713 50.9308 13.8507 50.8655 13.916C50.8095 13.972 50.7348 14 50.6415 14H45.2515ZM59.0105 14.91C58.8892 14.91 58.7912 14.868 58.7165 14.784C58.6418 14.7093 58.5812 14.644 58.5345 14.588L57.9605 13.804C57.4565 14.028 56.8732 14.14 56.2105 14.14C55.4078 14.14 54.7218 14.0047 54.1525 13.734C53.5925 13.454 53.1538 13.0293 52.8365 12.46C52.5285 11.8813 52.3605 11.158 52.3325 10.29C52.3232 9.87933 52.3185 9.48733 52.3185 9.114C52.3185 8.73133 52.3232 8.33467 52.3325 7.924C52.3605 7.06533 52.5378 6.35133 52.8645 5.782C53.1912 5.20333 53.6392 4.774 54.2085 4.494C54.7872 4.20467 55.4545 4.06 56.2105 4.06C56.9758 4.06 57.6432 4.20467 58.2125 4.494C58.7912 4.774 59.2438 5.20333 59.5705 5.782C59.8972 6.35133 60.0698 7.06533 60.0885 7.924C60.1072 8.33467 60.1165 8.73133 60.1165 9.114C60.1165 9.48733 60.1072 9.87933 60.0885 10.29C60.0418 11.578 59.7058 12.5347 59.0805 13.16L60.0045 14.476C60.0138 14.4853 60.0232 14.4993 60.0325 14.518C60.0418 14.546 60.0465 14.5833 60.0465 14.63C60.0558 14.7047 60.0325 14.77 59.9765 14.826C59.9205 14.882 59.8505 14.91 59.7665 14.91H59.0105ZM56.2105 12.95C56.9198 12.95 57.5032 12.7353 57.9605 12.306C58.4178 11.8767 58.6652 11.1813 58.7025 10.22C58.7212 9.8 58.7305 9.42667 58.7305 9.1C58.7305 8.764 58.7212 8.39067 58.7025 7.98C58.6838 7.336 58.5625 6.81333 58.3385 6.412C58.1238 6.01067 57.8345 5.71667 57.4705 5.53C57.1065 5.34333 56.6865 5.25 56.2105 5.25C55.7532 5.25 55.3378 5.34333 54.9645 5.53C54.6005 5.71667 54.3112 6.01067 54.0965 6.412C53.8818 6.81333 53.7605 7.336 53.7325 7.98C53.7232 8.39067 53.7185 8.764 53.7185 9.1C53.7185 9.42667 53.7232 9.8 53.7325 10.22C53.7698 11.1813 54.0172 11.8767 54.4745 12.306C54.9318 12.7353 55.5105 12.95 56.2105 12.95ZM64.7051 14.14C64.1078 14.14 63.5991 14.0093 63.1791 13.748C62.7685 13.4773 62.4558 13.104 62.2411 12.628C62.0265 12.152 61.9191 11.606 61.9191 10.99V7.042C61.9191 6.94867 61.9471 6.874 62.0031 6.818C62.0685 6.75267 62.1478 6.72 62.2411 6.72H62.9411C63.0345 6.72 63.1091 6.75267 63.1651 6.818C63.2305 6.874 63.2631 6.94867 63.2631 7.042V10.92C63.2631 12.3107 63.8698 13.006 65.0831 13.006C65.6618 13.006 66.1238 12.824 66.4691 12.46C66.8238 12.0867 67.0011 11.5733 67.0011 10.92V7.042C67.0011 6.94867 67.0291 6.874 67.0851 6.818C67.1505 6.75267 67.2298 6.72 67.3231 6.72H68.0091C68.1118 6.72 68.1911 6.75267 68.2471 6.818C68.3031 6.874 68.3311 6.94867 68.3311 7.042V13.678C68.3311 13.7713 68.3031 13.8507 68.2471 13.916C68.1911 13.972 68.1118 14 68.0091 14H67.3651C67.2718 14 67.1925 13.972 67.1271 13.916C67.0711 13.8507 67.0431 13.7713 67.0431 13.678V13.062C66.7911 13.3887 66.4831 13.65 66.1191 13.846C65.7645 14.042 65.2931 14.14 64.7051 14.14ZM73.309 14.14C72.3477 14.14 71.5823 13.846 71.013 13.258C70.4437 12.6607 70.131 11.8487 70.075 10.822C70.0657 10.7007 70.061 10.5467 70.061 10.36C70.061 10.164 70.0657 10.0053 70.075 9.884C70.1123 9.22133 70.2663 8.64267 70.537 8.148C70.8077 7.644 71.1763 7.25667 71.643 6.986C72.119 6.71533 72.6743 6.58 73.309 6.58C74.0183 6.58 74.611 6.72933 75.087 7.028C75.5723 7.32667 75.941 7.75133 76.193 8.302C76.445 8.85267 76.571 9.49667 76.571 10.234V10.472C76.571 10.5747 76.5383 10.654 76.473 10.71C76.417 10.766 76.3423 10.794 76.249 10.794H71.405C71.405 10.8033 71.405 10.822 71.405 10.85C71.405 10.878 71.405 10.9013 71.405 10.92C71.4237 11.3027 71.5077 11.662 71.657 11.998C71.8063 12.3247 72.021 12.5907 72.301 12.796C72.581 13.0013 72.917 13.104 73.309 13.104C73.645 13.104 73.925 13.0527 74.149 12.95C74.373 12.8473 74.555 12.7353 74.695 12.614C74.835 12.4833 74.9283 12.3853 74.975 12.32C75.059 12.1987 75.1243 12.1287 75.171 12.11C75.2177 12.082 75.2923 12.068 75.395 12.068H76.067C76.1603 12.068 76.235 12.096 76.291 12.152C76.3563 12.1987 76.3843 12.2687 76.375 12.362C76.3657 12.502 76.291 12.6747 76.151 12.88C76.011 13.076 75.8103 13.272 75.549 13.468C75.2877 13.664 74.9703 13.8273 74.597 13.958C74.2237 14.0793 73.7943 14.14 73.309 14.14ZM71.405 9.828H75.241V9.786C75.241 9.366 75.1617 8.99267 75.003 8.666C74.8537 8.33933 74.6343 8.08267 74.345 7.896C74.0557 7.7 73.7103 7.602 73.309 7.602C72.9077 7.602 72.5623 7.7 72.273 7.896C71.993 8.08267 71.7783 8.33933 71.629 8.666C71.4797 8.99267 71.405 9.366 71.405 9.786V9.828ZM80.765 14.14C80.2423 14.14 79.7943 14.0747 79.421 13.944C79.0477 13.8133 78.7443 13.6547 78.511 13.468C78.2777 13.2813 78.1003 13.0947 77.979 12.908C77.867 12.7213 77.8063 12.572 77.797 12.46C77.7877 12.3573 77.8203 12.278 77.895 12.222C77.9697 12.166 78.0443 12.138 78.119 12.138H78.735C78.791 12.138 78.833 12.1473 78.861 12.166C78.8983 12.1753 78.945 12.2127 79.001 12.278C79.1223 12.4087 79.2577 12.5393 79.407 12.67C79.5563 12.8007 79.7383 12.908 79.953 12.992C80.177 13.076 80.4523 13.118 80.779 13.118C81.255 13.118 81.647 13.0293 81.955 12.852C82.263 12.6653 82.417 12.3947 82.417 12.04C82.417 11.8067 82.3517 11.62 82.221 11.48C82.0997 11.34 81.8757 11.214 81.549 11.102C81.2317 10.99 80.793 10.8733 80.233 10.752C79.673 10.6213 79.2297 10.4627 78.903 10.276C78.5763 10.08 78.343 9.85133 78.203 9.59C78.063 9.31933 77.993 9.016 77.993 8.68C77.993 8.33467 78.0957 8.00333 78.301 7.686C78.5063 7.35933 78.805 7.09333 79.197 6.888C79.5983 6.68267 80.0977 6.58 80.695 6.58C81.1803 6.58 81.5957 6.64067 81.941 6.762C82.2863 6.88333 82.571 7.03733 82.795 7.224C83.019 7.40133 83.187 7.57867 83.299 7.756C83.411 7.93333 83.4717 8.08267 83.481 8.204C83.4903 8.29733 83.4623 8.37667 83.397 8.442C83.3317 8.498 83.257 8.526 83.173 8.526H82.585C82.5197 8.526 82.4637 8.512 82.417 8.484C82.3797 8.456 82.3423 8.42333 82.305 8.386C82.2117 8.26467 82.0997 8.14333 81.969 8.022C81.8477 7.90067 81.6843 7.80267 81.479 7.728C81.283 7.644 81.0217 7.602 80.695 7.602C80.2283 7.602 79.8783 7.7 79.645 7.896C79.4117 8.092 79.295 8.33933 79.295 8.638C79.295 8.81533 79.3463 8.974 79.449 9.114C79.5517 9.254 79.7477 9.38 80.037 9.492C80.3263 9.604 80.7557 9.72533 81.325 9.856C81.941 9.97733 82.4263 10.1407 82.781 10.346C83.1357 10.5513 83.3877 10.7893 83.537 11.06C83.6863 11.3307 83.761 11.6433 83.761 11.998C83.761 12.39 83.6443 12.7493 83.411 13.076C83.187 13.4027 82.851 13.664 82.403 13.86C81.9643 14.0467 81.4183 14.14 80.765 14.14ZM88.21 14C87.6874 14 87.2627 13.902 86.936 13.706C86.6094 13.5007 86.3714 13.216 86.222 12.852C86.0727 12.4787 85.998 12.04 85.998 11.536V7.84H84.906C84.8127 7.84 84.7334 7.812 84.668 7.756C84.612 7.69067 84.584 7.61133 84.584 7.518V7.042C84.584 6.94867 84.612 6.874 84.668 6.818C84.7334 6.75267 84.8127 6.72 84.906 6.72H85.998V4.382C85.998 4.28867 86.026 4.214 86.082 4.158C86.1474 4.09267 86.2267 4.06 86.32 4.06H86.978C87.0714 4.06 87.146 4.09267 87.202 4.158C87.2674 4.214 87.3 4.28867 87.3 4.382V6.72H89.036C89.1294 6.72 89.204 6.75267 89.26 6.818C89.3254 6.874 89.358 6.94867 89.358 7.042V7.518C89.358 7.61133 89.3254 7.69067 89.26 7.756C89.204 7.812 89.1294 7.84 89.036 7.84H87.3V11.438C87.3 11.8767 87.3747 12.222 87.524 12.474C87.6734 12.726 87.9394 12.852 88.322 12.852H89.176C89.2694 12.852 89.344 12.8847 89.4 12.95C89.4654 13.006 89.498 13.0807 89.498 13.174V13.678C89.498 13.7713 89.4654 13.8507 89.4 13.916C89.344 13.972 89.2694 14 89.176 14H88.21Z" fill="#00131E"/>
<g clip-path="url(#clip0_1_12)">
<path d="M8.33 5.5H4.82917C4.00333 5.5 3.33333 6.17 3.33333 6.99583V16.005C3.33333 16.83 4.00333 17.5 4.82917 17.5H10.785C11.6108 17.5 12.2808 16.83 12.2808 16.0042V15.3683" fill="#00131E"/>
<path d="M8.33 5.5H4.82917C4.00333 5.5 3.33333 6.17 3.33333 6.99583V16.005C3.33333 16.83 4.00333 17.5 4.82917 17.5H10.785C11.6108 17.5 12.2808 16.83 12.2808 16.0042V15.3683" stroke="#D9E8F2" stroke-width="1.5" stroke-linecap="round" stroke-linejoin="round"/>
<path d="M7.74583 14.1467L13.17 15.6083C14.0608 15.8483 14.9767 15.3192 15.2142 14.4283L17.4442 6.05834C17.6792 5.175 17.15 4.25834 16.2675 4.02L10.8433 2.55834C9.9525 2.31834 9.03667 2.8475 8.79917 3.73834L6.56917 12.1083C6.33333 12.9958 6.85917 13.9075 7.74583 14.1467Z" fill="#00131E" stroke="#D9E8F2" stroke-width="1.5" stroke-linecap="round" stroke-linejoin="round"/>
</g>
</g>
<defs>
<clipPath id="clip0_1_12">
<rect width="20" height="20" fill="white"/>
</clipPath>
</defs>
</svg>
