<svg width="50" height="50" viewBox="0 0 50 50" fill="none" xmlns="http://www.w3.org/2000/svg">
<g filter="url(#filter0_d_27_19)">
<rect x="14" y="10" width="22" height="22" rx="4" fill="white"/>
</g>
<path fill-rule="evenodd" clip-rule="evenodd" d="M19.3999 21C19.3999 20.6686 19.6685 20.4 19.9999 20.4L28.5102 20.4L25.184 17.2325C24.9452 17.0028 24.9377 16.623 25.1674 16.3841C25.3971 16.1453 25.7769 16.1378 26.0158 16.3675L30.4158 20.5675C30.5334 20.6806 30.5999 20.8368 30.5999 21C30.5999 21.1632 30.5334 21.3194 30.4158 21.4325L26.0158 25.6325C25.7769 25.8622 25.3971 25.8547 25.1674 25.6159C24.9377 25.377 24.9452 24.9972 25.184 24.7675L28.5102 21.6L19.9999 21.6C19.6685 21.6 19.3999 21.3314 19.3999 21Z" fill="#00131E"/>
<defs>
<filter id="filter0_d_27_19" x="0" y="0" width="50" height="50" filterUnits="userSpaceOnUse" color-interpolation-filters="sRGB">
<feFlood flood-opacity="0" result="BackgroundImageFix"/>
<feColorMatrix in="SourceAlpha" type="matrix" values="0 0 0 0 0 0 0 0 0 0 0 0 0 0 0 0 0 0 127 0" result="hardAlpha"/>
<feOffset dy="4"/>
<feGaussianBlur stdDeviation="7"/>
<feComposite in2="hardAlpha" operator="out"/>
<feColorMatrix type="matrix" values="0 0 0 0 0 0 0 0 0 0.0745098 0 0 0 0 0.117647 0 0 0 0.15 0"/>
<feBlend mode="normal" in2="BackgroundImageFix" result="effect1_dropShadow_27_19"/>
<feBlend mode="normal" in="SourceGraphic" in2="effect1_dropShadow_27_19" result="shape"/>
</filter>
</defs>
</svg>
